<?xml version="1.0" encoding="iso-8859-1"?>
<!-- Uploaded to: SVG Repo, www.svgrepo.com, Generator: SVG Repo Mixer Tools -->
<svg xmlns="http://www.w3.org/2000/svg" xmlns:xlink="http://www.w3.org/1999/xlink" version="1.1" id="Capa_1"  viewBox="0 0 470.023 470.023" xml:space="preserve" width="512" height="512">
<g>
	<path style="fill:#FDFA7B;" d="M243.144,367.413l50.985,89.611c10.384-1.931,20.693-4.364,30.883-7.323l7.512-62.289   L243.144,367.413z"/>
	<path style="fill:#FEFDCA;" d="M137.5,387.413l7.511,62.289c48.512,14.085,99.682,16.518,149.117,7.323l9.825-81.469L137.5,387.413   z"/>
	<path style="fill:#FDCE6E;" d="M116.07,209.702l7.825,64.888l177.647,120.962c10.428-2.195,20.77-4.901,30.981-8.138   l21.431-177.711H116.07z"/>
	<path style="fill:#FDFA7B;" d="M301.541,395.555l15.85-131.432c-3.256-1.688-6.447-3.513-9.548-5.504   c-22.159,12.279-47.32,18.88-72.831,18.88s-50.672-6.601-72.831-18.88c-11.745,7.541-24.677,12.926-38.286,15.969L137.5,387.413   C190.635,404.26,247.274,406.971,301.541,395.555z"/>
	<path style="fill:#FDFA7B;" d="M372.512,67.5v180c49.706,0,90-40.294,90-90S422.217,67.5,372.512,67.5z"/>
	<path style="fill:#FEFDCA;" d="M432.512,157.5c0-49.706-26.863-90-60-90c-10.758,0-21.074,1.891-30.637,5.353   C321.994,34.053,281.604,7.5,235.012,7.5S148.03,34.053,128.149,72.853c-9.563-3.462-19.879-5.353-30.637-5.353   c-49.706,0-90,40.294-90,90s40.294,90,90,90c24.585,0,46.864-9.862,63.108-25.841c20.45,16.179,46.292,25.841,74.392,25.841   s53.943-9.662,74.392-25.841c16.243,15.979,38.522,25.841,63.108,25.841C405.649,247.5,432.512,207.205,432.512,157.5z"/>
	<circle cx="90.012" cy="142.5" r="7.5"/>
	<circle cx="60.012" cy="172.5" r="7.5"/>
	<path d="M372.512,60c-9.211,0-18.273,1.275-27.026,3.799C322.714,24.285,280.954,0,235.012,0S147.31,24.285,124.538,63.799   C115.785,61.275,106.723,60,97.512,60c-53.762,0-97.5,43.738-97.5,97.5S43.75,255,97.512,255c23.562,0,45.903-8.333,63.593-23.595   C182.744,246.863,208.162,255,235.012,255s52.268-8.137,73.907-23.595c9.669,8.342,20.735,14.597,32.623,18.57l-15.882,131.698   c-59.414,17.864-121.884,17.864-181.298,0l-13.022-107.981c-0.496-4.112-4.233-7.041-8.344-6.549   c-4.113,0.496-7.045,4.231-6.549,8.344l21.117,175.112c0.36,2.985,2.468,5.467,5.355,6.305c30.123,8.747,61.106,13.12,92.091,13.12   s61.968-4.373,92.091-13.12c2.888-0.838,4.995-3.319,5.355-6.305L356.21,253.63c5.339,0.896,10.784,1.37,16.301,1.37   c53.762,0,97.5-43.738,97.5-97.5S426.273,60,372.512,60z M151.859,443.84l-5.546-45.986c28.838,8.043,58.618,12.123,88.698,12.123   s59.86-4.08,88.698-12.123l-5.545,45.986C263.654,458.75,206.369,458.75,151.859,443.84z M372.512,240   c-21.775,0-42.319-8.412-57.848-23.688c-1.451-1.428-3.353-2.153-5.262-2.153c-1.638,0-3.281,0.534-4.651,1.618   C284.721,231.624,260.605,240,235.012,240s-49.709-8.376-69.739-24.223c-2.969-2.349-7.218-2.118-9.913,0.535   C139.831,231.588,119.287,240,97.512,240c-45.49,0-82.5-37.01-82.5-82.5S52.021,75,97.512,75c9.646,0,19.094,1.65,28.084,4.904   c3.55,1.287,7.505-0.27,9.228-3.632C154.189,38.479,192.579,15,235.012,15S315.834,38.479,335.2,76.272   c1.724,3.362,5.682,4.919,9.228,3.632C353.418,76.65,362.866,75,372.512,75c45.49,0,82.5,37.01,82.5,82.5S418.002,240,372.512,240z   "/>
</g>















</svg>