<svg width="266" height="61" viewBox="0 0 266 61" fill="none" xmlns="http://www.w3.org/2000/svg">
<path d="M60.7494 43.6833C60.7494 44.836 59.8162 45.7753 58.6574 45.7753C57.5046 45.7753 56.5653 44.8421 56.5653 43.6833C56.5653 42.5305 57.4985 41.5912 58.6574 41.5912C59.8162 41.5912 60.7494 42.5244 60.7494 43.6833Z" fill="#0000FF"/>
<path d="M43.2992 16.7182H40.829V11.6253C40.829 6.58116 36.7242 2.47022 31.6739 2.47022C26.6298 2.47022 22.5189 6.57506 22.5189 11.6253V16.7182H20.0486V11.6253C20.0486 5.21491 25.2635 0 31.6739 0C38.0843 0 43.2992 5.21491 43.2992 11.6253V16.7182Z" fill="#0000FF"/>
<path d="M47.538 38.5172C47.4222 38.6453 47.2941 38.7612 47.1721 38.8893C47.2941 38.7673 47.4161 38.6453 47.538 38.5172Z" fill="#0000FF"/>
<path d="M45.7938 40.2372C45.5011 40.5116 45.2022 40.7739 44.9033 41.0423C45.2022 40.78 45.5011 40.5116 45.7938 40.2372Z" fill="#0000FF"/>
<path d="M48.3676 37.6023C48.2639 37.7182 48.1602 37.8341 48.0504 37.95C48.1541 37.8341 48.2639 37.7243 48.3676 37.6023Z" fill="#0000FF"/>
<path d="M46.6719 39.3955C46.5317 39.5358 46.3853 39.67 46.245 39.8042C46.3914 39.67 46.5317 39.5358 46.6719 39.3955Z" fill="#0000FF"/>
<path d="M48.0504 37.95C47.8796 38.139 47.7091 38.3342 47.5322 38.5172C47.7152 38.3342 47.8796 38.139 48.0504 37.95Z" fill="#0000FF"/>
<path d="M46.245 39.8042C46.0925 39.9505 45.9463 40.0969 45.7938 40.2311C45.9463 40.0969 46.0986 39.9505 46.245 39.8042Z" fill="#0000FF"/>
<path d="M48.3676 37.6023C49.4349 36.3824 50.3925 35.0772 51.1732 33.6926C51.7344 32.6741 52.204 31.6006 52.4846 30.4722L52.4724 30.2831C51.8564 32.9485 50.2644 35.4309 48.3676 37.6023Z" fill="#0000FF"/>
<path d="M51.9966 24.2387L51.6612 19.9814C51.4843 17.7063 49.5874 15.9558 47.3063 15.9558H16.3096C14.0406 15.9558 12.1498 17.688 11.9608 19.9509C11.1556 29.4475 9.20387 52.5883 9.20387 52.5883C9.20387 52.5883 12.9183 53.3629 22.11 51.8991C28.2764 50.9171 34.1623 48.3554 39.4748 45.0984C39.5419 45.0557 39.6028 45.0191 39.6699 44.9764C44.6165 41.9206 49.4593 37.9622 51.7527 32.4606C51.9723 31.936 52.1613 31.3993 52.3138 30.8565C52.3199 30.826 52.3321 30.7955 52.3382 30.765C52.3809 30.6064 52.4236 30.4478 52.4602 30.2953C52.4663 30.2892 51.9966 24.2387 51.9966 24.2387ZM21.6038 21.6526C20.7438 21.6526 20.0484 20.9573 20.0484 20.0973C20.0484 19.2373 20.7438 18.5419 21.6038 18.5419C22.4638 18.5419 23.1591 19.2373 23.1591 20.0973C23.1591 20.9573 22.4638 21.6526 21.6038 21.6526ZM42.0609 21.6526C41.2009 21.6526 40.5055 20.9573 40.5055 20.0973C40.5055 19.2373 41.2009 18.5419 42.0609 18.5419C42.9209 18.5419 43.6162 19.2373 43.6162 20.0973C43.6162 20.9573 42.9209 21.6526 42.0609 21.6526Z" fill="#0000FF"/>
<path d="M8.97209 54.046L8.80741 55.4184C8.49024 58.0228 10.5213 60.3161 13.1379 60.3161H50.1668C52.7103 60.3161 54.7108 58.157 54.5218 55.6197L53.3202 39.6639C53.3507 40.0359 51.4111 42.988 49.7277 44.6348C41.2558 52.9116 29.3194 54.8085 17.6026 54.7902C12.2352 54.778 8.97209 54.046 8.97209 54.046Z" fill="#0000FF"/>
<path d="M59.5171 35.0589C61.646 35.0589 63.3719 33.333 63.3719 31.2041C63.3719 29.0752 61.646 27.3494 59.5171 27.3494C57.3882 27.3494 55.6623 29.0752 55.6623 31.2041C55.6623 33.333 57.3882 35.0589 59.5171 35.0589Z" fill="#0000FF"/>
<path d="M55.6623 38.6636C56.2485 38.6636 56.7236 38.1884 56.7236 37.6023C56.7236 37.0162 56.2485 36.541 55.6623 36.541C55.0762 36.541 54.6011 37.0162 54.6011 37.6023C54.6011 38.1884 55.0762 38.6636 55.6623 38.6636Z" fill="#0000FF"/>
<path d="M8.12429 48.7335C8.12429 49.3191 7.64854 49.7948 7.06301 49.7948C6.47747 49.7948 6.00173 49.3191 6.00173 48.7335C6.00173 48.148 6.47747 47.6723 7.06301 47.6723C7.64854 47.6723 8.12429 48.148 8.12429 48.7335Z" fill="#0000FF"/>
<path d="M6.00173 52.7957C6.00173 54.4547 4.65987 55.7965 3.00086 55.7965C1.34185 55.7965 0 54.4547 0 52.7957C0 51.1367 1.34185 49.7948 3.00086 49.7948C4.65987 49.7948 6.00173 51.1367 6.00173 52.7957Z" fill="#0000FF"/>
<path d="M87.457 23.9696C87.457 17.7415 92.0721 13.6641 98.9274 13.6641C105.111 13.6641 109.726 17.6519 109.995 23.2527H104.483C104.17 20.3403 102.019 18.5928 98.7034 18.5928C95.1189 18.5928 92.9234 20.3403 92.9234 23.2527C92.9234 25.4482 94.0884 26.7924 96.7319 27.6437L101.481 29.1223C106.141 30.6009 108.337 33.2445 108.337 37.4115C108.337 43.5051 103.632 47.5825 96.5527 47.5825C89.6525 47.5825 85.3511 44.0428 84.9927 37.9939H90.5487C90.8175 40.9063 93.0578 42.609 96.7319 42.609C100.496 42.609 102.915 40.7719 102.915 37.9043C102.915 35.8432 101.974 34.7679 99.5099 34.0062L94.7156 32.5276C89.9662 31.049 87.457 28.0918 87.457 23.9696ZM116.404 47H111.162L116.449 13.6641H121.691L119.451 27.8677C121.378 25.3138 123.484 24.1936 126.396 24.1936C131.37 24.1936 134.596 28.2262 133.744 33.4237L131.594 47H126.351L128.323 34.6783C128.905 31.049 127.382 28.9431 124.335 28.9431C121.109 28.9431 118.869 31.2282 118.241 35.1263L116.404 47ZM137.291 37.5011C137.291 30.108 143.071 24.2832 150.285 24.2832C156.602 24.2832 160.859 28.3158 160.859 34.3198C160.859 41.7129 155.124 47.5377 147.865 47.5377C141.547 47.5377 137.291 43.5051 137.291 37.5011ZM142.667 37.0978C142.667 40.5927 144.773 42.8778 148.179 42.8778C152.211 42.8778 155.482 39.2485 155.482 34.7231C155.482 31.1834 153.376 28.8983 150.016 28.8983C145.983 28.8983 142.667 32.5276 142.667 37.0978ZM161.662 57.2606L166.77 24.8657H171.654L171.475 28.1814C173.267 25.6722 175.732 24.2832 179.003 24.2832C184.245 24.2832 188.009 28.3606 188.009 34.275C188.009 42.0265 183.035 47.5377 176.359 47.5377C173.043 47.5377 170.131 45.9246 169.011 43.4603L166.905 57.2606H161.662ZM170.176 37.277C170.176 40.7271 172.192 42.8778 175.508 42.8778C179.54 42.8778 182.721 39.2485 182.721 34.5887C182.721 31.1834 180.705 28.8983 177.479 28.8983C173.402 28.8983 170.176 32.5724 170.176 37.277ZM211.871 47H188.795L189.602 41.8025L209.003 19.3993H193.545L194.307 14.2466H216.799L216.038 19.2201L196.413 41.8473H212.677L211.871 47ZM225.957 47.5377C219.774 47.5377 215.92 43.7739 215.92 37.6355C215.92 30.0632 221.297 24.2832 228.287 24.2832C234.829 24.2832 238.548 28.8087 237.517 35.4848L237.248 37.1426L220.984 37.1874V37.3218C220.984 41.0856 222.821 43.1915 226.226 43.1915C228.735 43.1915 230.751 41.9817 231.692 39.8758H236.89C235.366 44.4908 230.975 47.5377 225.957 47.5377ZM227.973 28.5846C225.061 28.5846 222.597 30.6905 221.566 33.7822H232.544C233.036 30.6457 231.199 28.5846 227.973 28.5846ZM245.266 47H240.024L243.519 24.8657H248.358V27.8677C250.284 25.3138 252.345 24.1936 255.303 24.1936C260.276 24.1936 263.457 28.2262 262.651 33.4237L260.5 47H255.258L257.185 34.6783C257.812 31.049 256.288 28.9431 253.197 28.9431C250.016 28.9431 247.775 31.2282 247.148 35.1263L245.266 47Z" fill="#0000FF"/>
</svg>
